<?xml version="1.0" encoding="utf-8"?>
<!-- Generator: Adobe Illustrator 23.1.0, SVG Export Plug-In . SVG Version: 6.00 Build 0)  -->
<svg version="1.1" xmlns="http://www.w3.org/2000/svg" xmlns:xlink="http://www.w3.org/1999/xlink" x="0px" y="0px" width="170px"
	 height="70px" viewBox="0 0 170 70" style="enable-background:new 0 0 170 70;" xml:space="preserve">
<style type="text/css">
	.st0{fill:#00B4E6;}
	.st1{fill:#80E3FF;}
</style>
<g id="Layer_1">
</g>
<g id="Layer_2">
	<g>
		<g>
			<path class="st0" d="M95.3,66.8L95.3,66.8c-3.1,3.1-8.2,3.1-11.4,0l-31-31c-3.1-3.1-3.1-8.2,0-11.4l0,0c3.1-3.1,8.2-3.1,11.4,0
				l31,31C98.4,58.6,98.4,63.7,95.3,66.8z"/>
			<path class="st0" d="M52.9,66.8L52.9,66.8c-3.1-3.1-3.1-8.2,0-11.4l31-31c3.1-3.1,8.2-3.1,11.4,0l0,0c3.1,3.1,3.1,8.2,0,11.4
				l-31,31C61.2,70,56.1,70,52.9,66.8z"/>
		</g>
		<circle class="st1" cx="161.3" cy="9.2" r="8.7"/>
		<g>
			<path class="st0" d="M29.4,46.8c0,3.5-2.9,6.4-6.4,6.4c-3.5,0-6.4-2.9-6.4-6.4H0v0c0,12.6,10.2,22.7,22.7,22.7
				c12.6,0,22.7-10.2,22.7-22.7v0H29.4z"/>
			<path class="st0" d="M45.5,47.4V29.8c0-4.4-3.6-8-8-8h0c-4.4,0-8,3.6-8,8v21.3h14.4L45.5,47.4z"/>
			<path class="st0" d="M0,47.9l0-18c0-4.5,3.7-8.2,8.2-8.2h0c4.5,0,8.2,3.7,8.2,8.2v21.7H1.8L0,47.9z"/>
		</g>
		<g>
			<path class="st1" d="M132,46.8c0,3.5-2.9,6.4-6.4,6.4c-3.5,0-6.4-2.9-6.4-6.4h-16.5v0c0,12.6,10.2,22.7,22.7,22.7
				c12.6,0,22.7-10.2,22.7-22.7v0H132z"/>
			<path class="st1" d="M148.1,47.4V29.8c0-4.4-3.6-8-8-8h0c-4.4,0-8,3.6-8,8v21.3h14.4L148.1,47.4z"/>
			<path class="st1" d="M102.7,47.9V30c0-4.5,3.7-8.2,8.2-8.2h0c4.5,0,8.2,3.7,8.2,8.2v21.7h-14.6L102.7,47.9z"/>
		</g>
		<g>
			<path class="st1" d="M169.3,57.2V29.8c0-4.4-3.6-8-8-8h0c-4.4,0-8,3.6-8,8v27.4H169.3z"/>
			<path class="st1" d="M153.2,34v27.4c0,4.4,3.6,8,8,8h0c4.4,0,8-3.6,8-8V34H153.2z"/>
		</g>
	</g>
</g>
</svg>
