<svg xmlns="http://www.w3.org/2000/svg" version="1.1" xmlns:xlink="http://www.w3.org/1999/xlink" width="100px" height="100px"><svg xmlns="http://www.w3.org/2000/svg" version="1.1" xmlns:xlink="http://www.w3.org/1999/xlink" width="100px" height="100px"><svg version="1.1" xmlns="http://www.w3.org/2000/svg" xmlns:xlink="http://www.w3.org/1999/xlink" x="0px" y="0px" width="100px" height="100px" viewBox="0 0 100 100" style="enable-background:new 0 0 100 100;" xml:space="preserve">
<style type="text/css">
	.st0{fill:#80E3FF;}
	.st1{fill:#00B4E6;}
</style>
<g id="Layer_1">
</g>
<g id="Layer_2">
	<path class="st0" d="M5.1,95L5.1,95c-6.7-6.7-6.7-17.5,0-24.1L70.8,5.2c6.7-6.7,17.5-6.7,24.1,0l0,0c6.7,6.7,6.7,17.5,0,24.1
		L29.2,95C22.6,101.7,11.7,101.7,5.1,95z"></path>
	<path class="st1" d="M94.9,95L94.9,95c-6.7,6.7-17.5,6.7-24.1,0L5.1,29.3c-6.7-6.7-6.7-17.5,0-24.1l0,0c6.7-6.7,17.5-6.7,24.1,0
		l65.7,65.7C101.6,77.5,101.6,88.3,94.9,95z"></path>
</g>
</svg></svg><style>@media (prefers-color-scheme: light) { :root { filter: none; } }
@media (prefers-color-scheme: dark) { :root { filter: none; } }
</style></svg>